<mxfile host="Electron" modified="2024-01-27T23:35:37.520Z" agent="Mozilla/5.0 (Windows NT 10.0; Win64; x64) AppleWebKit/537.36 (KHTML, like Gecko) draw.io/22.1.21 Chrome/120.0.6099.109 Electron/28.1.0 Safari/537.36" etag="lQZwWqTZBFZDkWhI2AGr" version="22.1.21" type="device">
  <diagram name="PÃ¡gina-1" id="BiWuJeufKO3djmUNG3K5">
    <mxGraphModel dx="376" dy="851" grid="1" gridSize="10" guides="1" tooltips="1" connect="1" arrows="1" fold="1" page="1" pageScale="1" pageWidth="827" pageHeight="1169" math="0" shadow="0">
      <root>
        <mxCell id="0" />
        <mxCell id="1" parent="0" />
        <mxCell id="n_ZwA6Rk5RB5erbjZ0qh-1" value="" style="whiteSpace=wrap;html=1;aspect=fixed;" vertex="1" parent="1">
          <mxGeometry x="20" y="40" width="780" height="780" as="geometry" />
        </mxCell>
        <mxCell id="n_ZwA6Rk5RB5erbjZ0qh-5" value="Image Editor" style="text;html=1;strokeColor=none;fillColor=none;align=center;verticalAlign=middle;whiteSpace=wrap;rounded=0;" vertex="1" parent="1">
          <mxGeometry x="384" y="100" width="96" height="30" as="geometry" />
        </mxCell>
      </root>
    </mxGraphModel>
  </diagram>
</mxfile>
